<mxfile host="app.diagrams.net" agent="Mozilla/5.0 (X11; Linux x86_64) AppleWebKit/537.36 (KHTML, like Gecko) Chrome/133.0.0.0 Safari/537.36 Edg/133.0.0.0" version="26.0.16">
  <diagram name="Page-1" id="e7e014a7-5840-1c2e-5031-d8a46d1fe8dd">
    <mxGraphModel dx="1553" dy="795" grid="1" gridSize="10" guides="1" tooltips="1" connect="1" arrows="1" fold="1" page="1" pageScale="1" pageWidth="1169" pageHeight="826" background="none" math="0" shadow="0">
      <root>
        <mxCell id="0" />
        <mxCell id="1" parent="0" />
        <mxCell id="oZruXeAUzQsY2GdccT08-43" value="Simulation" style="" vertex="1" parent="1">
          <mxGeometry x="40" y="360" width="150" height="77" as="geometry" />
        </mxCell>
        <mxCell id="oZruXeAUzQsY2GdccT08-59" value="PCAP" style="whiteSpace=wrap;html=1;shape=mxgraph.basic.document" vertex="1" parent="1">
          <mxGeometry x="260" y="260" width="60" height="90" as="geometry" />
        </mxCell>
        <mxCell id="oZruXeAUzQsY2GdccT08-60" value="Key Log" style="whiteSpace=wrap;html=1;shape=mxgraph.basic.document" vertex="1" parent="1">
          <mxGeometry x="260" y="437" width="60" height="90" as="geometry" />
        </mxCell>
        <mxCell id="oZruXeAUzQsY2GdccT08-62" value="" style="endArrow=classic;html=1;rounded=0;exitX=0.5;exitY=0;exitDx=0;exitDy=0;entryX=0;entryY=0.5;entryDx=0;entryDy=0;entryPerimeter=0;" edge="1" parent="1" source="oZruXeAUzQsY2GdccT08-43" target="oZruXeAUzQsY2GdccT08-59">
          <mxGeometry width="50" height="50" relative="1" as="geometry">
            <mxPoint x="110" y="330" as="sourcePoint" />
            <mxPoint x="160" y="280" as="targetPoint" />
            <Array as="points">
              <mxPoint x="115" y="305" />
            </Array>
          </mxGeometry>
        </mxCell>
        <mxCell id="oZruXeAUzQsY2GdccT08-63" value="" style="endArrow=classic;html=1;rounded=0;exitX=0.5;exitY=1;exitDx=0;exitDy=0;entryX=0;entryY=0.5;entryDx=0;entryDy=0;entryPerimeter=0;" edge="1" parent="1" source="oZruXeAUzQsY2GdccT08-43" target="oZruXeAUzQsY2GdccT08-60">
          <mxGeometry width="50" height="50" relative="1" as="geometry">
            <mxPoint x="560" y="430" as="sourcePoint" />
            <mxPoint x="610" y="380" as="targetPoint" />
            <Array as="points">
              <mxPoint x="115" y="482" />
            </Array>
          </mxGeometry>
        </mxCell>
        <mxCell id="oZruXeAUzQsY2GdccT08-64" value="Extracting features &amp; Labeling" style="" vertex="1" parent="1">
          <mxGeometry x="365" y="360" width="220" height="77" as="geometry" />
        </mxCell>
        <mxCell id="oZruXeAUzQsY2GdccT08-65" value="" style="endArrow=classic;html=1;rounded=0;exitX=1;exitY=0.5;exitDx=0;exitDy=0;exitPerimeter=0;entryX=0.5;entryY=0;entryDx=0;entryDy=0;" edge="1" parent="1" source="oZruXeAUzQsY2GdccT08-59" target="oZruXeAUzQsY2GdccT08-64">
          <mxGeometry width="50" height="50" relative="1" as="geometry">
            <mxPoint x="560" y="430" as="sourcePoint" />
            <mxPoint x="610" y="380" as="targetPoint" />
            <Array as="points">
              <mxPoint x="475" y="305" />
            </Array>
          </mxGeometry>
        </mxCell>
        <mxCell id="oZruXeAUzQsY2GdccT08-66" value="" style="endArrow=classic;html=1;rounded=0;exitX=1;exitY=0.5;exitDx=0;exitDy=0;exitPerimeter=0;entryX=0.5;entryY=1;entryDx=0;entryDy=0;" edge="1" parent="1" source="oZruXeAUzQsY2GdccT08-60" target="oZruXeAUzQsY2GdccT08-64">
          <mxGeometry width="50" height="50" relative="1" as="geometry">
            <mxPoint x="560" y="430" as="sourcePoint" />
            <mxPoint x="610" y="380" as="targetPoint" />
            <Array as="points">
              <mxPoint x="475" y="480" />
            </Array>
          </mxGeometry>
        </mxCell>
        <mxCell id="oZruXeAUzQsY2GdccT08-67" value="JSON" style="whiteSpace=wrap;html=1;shape=mxgraph.basic.document" vertex="1" parent="1">
          <mxGeometry x="640" y="353.5" width="60" height="90" as="geometry" />
        </mxCell>
        <mxCell id="oZruXeAUzQsY2GdccT08-68" value="" style="endArrow=classic;html=1;rounded=0;exitX=1;exitY=0.5;exitDx=0;exitDy=0;entryX=0;entryY=0.5;entryDx=0;entryDy=0;entryPerimeter=0;" edge="1" parent="1" source="oZruXeAUzQsY2GdccT08-64" target="oZruXeAUzQsY2GdccT08-67">
          <mxGeometry width="50" height="50" relative="1" as="geometry">
            <mxPoint x="600" y="330" as="sourcePoint" />
            <mxPoint x="650" y="280" as="targetPoint" />
          </mxGeometry>
        </mxCell>
        <mxCell id="oZruXeAUzQsY2GdccT08-69" value="Format entries into rows" style="" vertex="1" parent="1">
          <mxGeometry x="750" y="360" width="160" height="77" as="geometry" />
        </mxCell>
        <mxCell id="oZruXeAUzQsY2GdccT08-70" value="" style="endArrow=classic;html=1;rounded=0;exitX=1;exitY=0.5;exitDx=0;exitDy=0;exitPerimeter=0;entryX=0;entryY=0.5;entryDx=0;entryDy=0;" edge="1" parent="1" source="oZruXeAUzQsY2GdccT08-67" target="oZruXeAUzQsY2GdccT08-69">
          <mxGeometry width="50" height="50" relative="1" as="geometry">
            <mxPoint x="560" y="430" as="sourcePoint" />
            <mxPoint x="610" y="380" as="targetPoint" />
          </mxGeometry>
        </mxCell>
        <mxCell id="oZruXeAUzQsY2GdccT08-71" value="CSV" style="whiteSpace=wrap;html=1;shape=mxgraph.basic.document" vertex="1" parent="1">
          <mxGeometry x="800" y="570" width="60" height="90" as="geometry" />
        </mxCell>
        <mxCell id="oZruXeAUzQsY2GdccT08-73" value="" style="endArrow=classic;html=1;rounded=0;exitX=0.5;exitY=1;exitDx=0;exitDy=0;entryX=0.5;entryY=0;entryDx=0;entryDy=0;entryPerimeter=0;" edge="1" parent="1" source="oZruXeAUzQsY2GdccT08-69" target="oZruXeAUzQsY2GdccT08-71">
          <mxGeometry width="50" height="50" relative="1" as="geometry">
            <mxPoint x="560" y="430" as="sourcePoint" />
            <mxPoint x="610" y="380" as="targetPoint" />
          </mxGeometry>
        </mxCell>
        <mxCell id="oZruXeAUzQsY2GdccT08-76" value="for each iteration" style="shape=umlFrame;whiteSpace=wrap;html=1;pointerEvents=0;" vertex="1" parent="1">
          <mxGeometry x="40" y="260" width="890" height="290" as="geometry" />
        </mxCell>
      </root>
    </mxGraphModel>
  </diagram>
</mxfile>
